<mxfile host="65bd71144e">
    <diagram id="BRXxwGiPwQbkAysCZl81" name="Page-1">
        <mxGraphModel dx="663" dy="537" grid="0" gridSize="10" guides="1" tooltips="1" connect="1" arrows="1" fold="1" page="1" pageScale="1" pageWidth="1169" pageHeight="827" background="#000000" math="0" shadow="0">
            <root>
                <mxCell id="0"/>
                <mxCell id="1" parent="0"/>
                <mxCell id="2" value="Visiteur" style="shape=umlActor;verticalLabelPosition=bottom;verticalAlign=top;html=1;strokeColor=#FFFFFF;fillColor=#007FFF;fontSize=18;" parent="1" vertex="1">
                    <mxGeometry x="60" y="20" width="70" height="100" as="geometry"/>
                </mxCell>
                <mxCell id="4" value="" style="html=1;points=[];perimeter=orthogonalPerimeter;fillColor=strokeColor;strokeColor=#007FFF;strokeWidth=10;" parent="1" vertex="1">
                    <mxGeometry x="92.5" y="170" width="5" height="657" as="geometry"/>
                </mxCell>
                <mxCell id="8" value="&lt;font style=&quot;font-size: 18px;&quot;&gt;Application&lt;/font&gt;" style="shape=umlLifeline;perimeter=lifelinePerimeter;whiteSpace=wrap;html=1;container=1;collapsible=0;recursiveResize=0;outlineConnect=0;fontSize=18;strokeColor=#FFFFFF;" parent="1" vertex="1">
                    <mxGeometry x="355" y="64" width="150" height="767" as="geometry"/>
                </mxCell>
                <mxCell id="17" value="" style="html=1;points=[];perimeter=orthogonalPerimeter;fontSize=18;fillColor=#0066CC;" parent="8" vertex="1">
                    <mxGeometry x="70" y="110" width="10" height="146" as="geometry"/>
                </mxCell>
                <mxCell id="32" value="" style="html=1;points=[];perimeter=orthogonalPerimeter;fontSize=12;fontColor=#FFFFFF;fillColor=#0066CC;" parent="8" vertex="1">
                    <mxGeometry x="70" y="286" width="10" height="115" as="geometry"/>
                </mxCell>
                <mxCell id="47" value="" style="html=1;points=[];perimeter=orthogonalPerimeter;fontSize=12;fontColor=#FFFFFF;fillColor=#0066CC;" parent="8" vertex="1">
                    <mxGeometry x="70" y="451" width="10" height="296" as="geometry"/>
                </mxCell>
                <mxCell id="10" value="Base de données" style="shape=umlLifeline;perimeter=lifelinePerimeter;whiteSpace=wrap;html=1;container=1;collapsible=0;recursiveResize=0;outlineConnect=0;fontSize=18;strokeColor=#FFFFFF;" parent="1" vertex="1">
                    <mxGeometry x="795" y="64" width="150" height="770" as="geometry"/>
                </mxCell>
                <mxCell id="25" value="" style="html=1;points=[];perimeter=orthogonalPerimeter;fontSize=12;fontColor=#FFFFFF;fillColor=#0066CC;" parent="10" vertex="1">
                    <mxGeometry x="70" y="138" width="10" height="85" as="geometry"/>
                </mxCell>
                <mxCell id="40" value="" style="html=1;points=[];perimeter=orthogonalPerimeter;fontSize=12;fontColor=#FFFFFF;fillColor=#0066CC;" parent="10" vertex="1">
                    <mxGeometry x="70" y="304" width="10" height="66" as="geometry"/>
                </mxCell>
                <mxCell id="52" value="" style="html=1;points=[];perimeter=orthogonalPerimeter;fontSize=12;fontColor=#FFFFFF;fillColor=#0066CC;" parent="10" vertex="1">
                    <mxGeometry x="70" y="564" width="10" height="156" as="geometry"/>
                </mxCell>
                <mxCell id="20" value="" style="endArrow=open;endFill=1;endSize=12;html=1;strokeWidth=6;fontSize=18;exitX=1.196;exitY=0.025;exitDx=0;exitDy=0;exitPerimeter=0;fontColor=#FFFFFF;strokeColor=#FFFFFF;" parent="1" source="4" target="8" edge="1">
                    <mxGeometry width="160" relative="1" as="geometry">
                        <mxPoint x="350" y="380" as="sourcePoint"/>
                        <mxPoint x="510" y="380" as="targetPoint"/>
                    </mxGeometry>
                </mxCell>
                <mxCell id="21" value="Accédes à la page des véhicules d'occasions" style="text;strokeColor=none;align=center;fillColor=none;html=1;verticalAlign=middle;whiteSpace=wrap;rounded=0;fontSize=12;fontColor=#FFFFFF;" parent="1" vertex="1">
                    <mxGeometry x="130" y="170" width="260" height="10" as="geometry"/>
                </mxCell>
                <mxCell id="26" value="" style="endArrow=open;endFill=1;endSize=12;html=1;strokeWidth=6;fontSize=18;fontColor=#FFFFFF;entryX=0.109;entryY=0.352;entryDx=0;entryDy=0;entryPerimeter=0;strokeColor=#FFFFFF;" parent="1" edge="1">
                    <mxGeometry width="160" relative="1" as="geometry">
                        <mxPoint x="429.7857142857142" y="215.87999999999988" as="sourcePoint"/>
                        <mxPoint x="866.0899999999999" y="215.87999999999988" as="targetPoint"/>
                    </mxGeometry>
                </mxCell>
                <mxCell id="27" value="Interroge la base de données des véhicules d'occasions disponibles" style="text;strokeColor=none;align=center;fillColor=none;html=1;verticalAlign=middle;whiteSpace=wrap;rounded=0;fontSize=12;fontColor=#FFFFFF;" parent="1" vertex="1">
                    <mxGeometry x="456" y="199" width="370" height="10" as="geometry"/>
                </mxCell>
                <mxCell id="28" value="" style="endArrow=open;endFill=1;endSize=12;html=1;strokeWidth=6;fontSize=12;fontColor=#FFFFFF;exitX=0.158;exitY=0.752;exitDx=0;exitDy=0;exitPerimeter=0;dashed=1;strokeColor=#FFFFFF;" parent="1" edge="1">
                    <mxGeometry width="160" relative="1" as="geometry">
                        <mxPoint x="866.5800000000002" y="267.88" as="sourcePoint"/>
                        <mxPoint x="435" y="267.88" as="targetPoint"/>
                    </mxGeometry>
                </mxCell>
                <mxCell id="29" value="Renvoi la listes des véhicules d'occasions disponibles" style="text;strokeColor=none;align=center;fillColor=none;html=1;verticalAlign=middle;whiteSpace=wrap;rounded=0;fontSize=12;fontColor=#FFFFFF;" parent="1" vertex="1">
                    <mxGeometry x="473" y="249" width="370" height="10" as="geometry"/>
                </mxCell>
                <mxCell id="30" value="" style="endArrow=open;endFill=1;endSize=12;html=1;strokeWidth=6;fontSize=12;fontColor=#FFFFFF;entryX=1.357;entryY=0.366;entryDx=0;entryDy=0;entryPerimeter=0;dashed=1;strokeColor=#FFFFFF;" parent="1" edge="1">
                    <mxGeometry width="160" relative="1" as="geometry">
                        <mxPoint x="428" y="307" as="sourcePoint"/>
                        <mxPoint x="99.28500000000008" y="306.93999999999994" as="targetPoint"/>
                    </mxGeometry>
                </mxCell>
                <mxCell id="31" value="Affiche la liste des véhicules d'occasions disponibles" style="text;strokeColor=none;align=center;fillColor=none;html=1;verticalAlign=middle;whiteSpace=wrap;rounded=0;fontSize=12;fontColor=#FFFFFF;" parent="1" vertex="1">
                    <mxGeometry x="126" y="290" width="297" height="10" as="geometry"/>
                </mxCell>
                <mxCell id="33" value="" style="endArrow=open;endFill=1;endSize=12;html=1;strokeWidth=6;fontSize=18;exitX=0.814;exitY=0.388;exitDx=0;exitDy=0;exitPerimeter=0;fontColor=#FFFFFF;strokeColor=#FFFFFF;" parent="1" edge="1">
                    <mxGeometry width="160" relative="1" as="geometry">
                        <mxPoint x="97.49999999999994" y="364.9200000000001" as="sourcePoint"/>
                        <mxPoint x="425.93" y="364.9200000000001" as="targetPoint"/>
                    </mxGeometry>
                </mxCell>
                <mxCell id="34" value="Applique un filtre de recherche" style="text;strokeColor=none;align=center;fillColor=none;html=1;verticalAlign=middle;whiteSpace=wrap;rounded=0;fontSize=12;fontColor=#FFFFFF;" parent="1" vertex="1">
                    <mxGeometry x="130.93" y="345" width="260" height="12" as="geometry"/>
                </mxCell>
                <mxCell id="38" value="" style="endArrow=open;endFill=1;endSize=12;html=1;strokeWidth=6;fontSize=18;fontColor=#FFFFFF;entryX=0.109;entryY=0.352;entryDx=0;entryDy=0;entryPerimeter=0;strokeColor=#FFFFFF;" parent="1" edge="1">
                    <mxGeometry width="160" relative="1" as="geometry">
                        <mxPoint x="432.8457142857142" y="387.87999999999977" as="sourcePoint"/>
                        <mxPoint x="869.15" y="387.87999999999977" as="targetPoint"/>
                    </mxGeometry>
                </mxCell>
                <mxCell id="39" value="Récupére les véhicules correpondant au filtre" style="text;strokeColor=none;align=center;fillColor=none;html=1;verticalAlign=middle;whiteSpace=wrap;rounded=0;fontSize=12;fontColor=#FFFFFF;" parent="1" vertex="1">
                    <mxGeometry x="455.21" y="371" width="370" height="10" as="geometry"/>
                </mxCell>
                <mxCell id="41" value="" style="endArrow=open;endFill=1;endSize=12;html=1;strokeWidth=6;fontSize=12;fontColor=#FFFFFF;exitX=0.158;exitY=0.752;exitDx=0;exitDy=0;exitPerimeter=0;dashed=1;strokeColor=#FFFFFF;" parent="1" edge="1">
                    <mxGeometry width="160" relative="1" as="geometry">
                        <mxPoint x="859.5800000000002" y="422.88" as="sourcePoint"/>
                        <mxPoint x="428" y="422.88" as="targetPoint"/>
                    </mxGeometry>
                </mxCell>
                <mxCell id="42" value="Renvoi la listes des véhicules d'occasions filtrée" style="text;strokeColor=none;align=center;fillColor=none;html=1;verticalAlign=middle;whiteSpace=wrap;rounded=0;fontSize=12;fontColor=#FFFFFF;" parent="1" vertex="1">
                    <mxGeometry x="466" y="404" width="370" height="10" as="geometry"/>
                </mxCell>
                <mxCell id="43" value="" style="endArrow=open;endFill=1;endSize=12;html=1;strokeWidth=6;fontSize=12;fontColor=#FFFFFF;entryX=1.357;entryY=0.366;entryDx=0;entryDy=0;entryPerimeter=0;dashed=1;strokeColor=#FFFFFF;" parent="1" edge="1">
                    <mxGeometry width="160" relative="1" as="geometry">
                        <mxPoint x="423" y="570" as="sourcePoint"/>
                        <mxPoint x="94.2850000000001" y="569.94" as="targetPoint"/>
                    </mxGeometry>
                </mxCell>
                <mxCell id="44" value="Affiche le détails du véhicule séléctionner" style="text;strokeColor=none;align=center;fillColor=none;html=1;verticalAlign=middle;whiteSpace=wrap;rounded=0;fontSize=12;fontColor=#FFFFFF;" parent="1" vertex="1">
                    <mxGeometry x="121.00000000000001" y="553" width="297" height="10" as="geometry"/>
                </mxCell>
                <mxCell id="45" value="" style="endArrow=open;endFill=1;endSize=12;html=1;strokeWidth=6;fontSize=18;exitX=0.814;exitY=0.388;exitDx=0;exitDy=0;exitPerimeter=0;fontColor=#FFFFFF;strokeColor=#FFFFFF;rounded=0;" parent="1" edge="1">
                    <mxGeometry width="160" relative="1" as="geometry">
                        <mxPoint x="100.99999999999994" y="532.9200000000001" as="sourcePoint"/>
                        <mxPoint x="429.43" y="532.9200000000001" as="targetPoint"/>
                    </mxGeometry>
                </mxCell>
                <mxCell id="46" value="Selectionne un véhicule" style="text;strokeColor=none;align=center;fillColor=none;html=1;verticalAlign=middle;whiteSpace=wrap;rounded=0;fontSize=12;fontColor=#FFFFFF;" parent="1" vertex="1">
                    <mxGeometry x="134.43" y="513" width="260" height="12" as="geometry"/>
                </mxCell>
                <mxCell id="48" value="" style="endArrow=open;endFill=1;endSize=12;html=1;strokeWidth=6;fontSize=18;exitX=0.814;exitY=0.388;exitDx=0;exitDy=0;exitPerimeter=0;fontColor=#FFFFFF;strokeColor=#FFFFFF;" parent="1" edge="1">
                    <mxGeometry width="160" relative="1" as="geometry">
                        <mxPoint x="100.21000000000001" y="610.9200000000001" as="sourcePoint"/>
                        <mxPoint x="428.64000000000004" y="610.9200000000001" as="targetPoint"/>
                    </mxGeometry>
                </mxCell>
                <mxCell id="49" value="Demande détails du véhicule via formulaire" style="text;strokeColor=none;align=center;fillColor=none;html=1;verticalAlign=middle;whiteSpace=wrap;rounded=0;fontSize=12;fontColor=#FFFFFF;" parent="1" vertex="1">
                    <mxGeometry x="133.64000000000001" y="591" width="260" height="12" as="geometry"/>
                </mxCell>
                <mxCell id="50" value="" style="endArrow=open;endFill=1;endSize=12;html=1;strokeWidth=6;fontSize=18;exitX=0.814;exitY=0.388;exitDx=0;exitDy=0;exitPerimeter=0;fontColor=#FFFFFF;strokeColor=#FFFFFF;" parent="1" target="10" edge="1">
                    <mxGeometry width="160" relative="1" as="geometry">
                        <mxPoint x="430" y="638.9200000000001" as="sourcePoint"/>
                        <mxPoint x="758.4300000000001" y="638.9200000000001" as="targetPoint"/>
                    </mxGeometry>
                </mxCell>
                <mxCell id="51" value="Envoye le demande de formulaire pré-rempli" style="text;strokeColor=none;align=center;fillColor=none;html=1;verticalAlign=middle;whiteSpace=wrap;rounded=0;fontSize=12;fontColor=#FFFFFF;" parent="1" vertex="1">
                    <mxGeometry x="463.43" y="619" width="260" height="12" as="geometry"/>
                </mxCell>
                <mxCell id="57" value="" style="endArrow=open;endFill=1;endSize=12;html=1;strokeWidth=6;fontSize=12;fontColor=#FFFFFF;exitX=0.158;exitY=0.752;exitDx=0;exitDy=0;exitPerimeter=0;dashed=1;strokeColor=#FFFFFF;" parent="1" edge="1">
                    <mxGeometry width="160" relative="1" as="geometry">
                        <mxPoint x="862.5800000000002" y="674.8800000000001" as="sourcePoint"/>
                        <mxPoint x="431" y="674.8800000000001" as="targetPoint"/>
                    </mxGeometry>
                </mxCell>
                <mxCell id="58" value="Renvoi formulaire pré-rempli avec les détails du véhicule" style="text;strokeColor=none;align=center;fillColor=none;html=1;verticalAlign=middle;whiteSpace=wrap;rounded=0;fontSize=12;fontColor=#FFFFFF;" parent="1" vertex="1">
                    <mxGeometry x="469" y="656" width="370" height="10" as="geometry"/>
                </mxCell>
                <mxCell id="59" value="" style="endArrow=open;endFill=1;endSize=12;html=1;strokeWidth=6;fontSize=18;exitX=0.814;exitY=0.388;exitDx=0;exitDy=0;exitPerimeter=0;fontColor=#FFFFFF;strokeColor=#FFFFFF;" parent="1" edge="1">
                    <mxGeometry width="160" relative="1" as="geometry">
                        <mxPoint x="99.43" y="705.9200000000001" as="sourcePoint"/>
                        <mxPoint x="427.86000000000007" y="705.9200000000001" as="targetPoint"/>
                    </mxGeometry>
                </mxCell>
                <mxCell id="60" value="Compléte le formulaire" style="text;strokeColor=none;align=center;fillColor=none;html=1;verticalAlign=middle;whiteSpace=wrap;rounded=0;fontSize=12;fontColor=#FFFFFF;" parent="1" vertex="1">
                    <mxGeometry x="132.86" y="686" width="260" height="12" as="geometry"/>
                </mxCell>
                <mxCell id="61" value="" style="endArrow=open;endFill=1;endSize=12;html=1;strokeWidth=6;fontSize=18;exitX=0.814;exitY=0.388;exitDx=0;exitDy=0;exitPerimeter=0;fontColor=#FFFFFF;strokeColor=#FFFFFF;" parent="1" edge="1">
                    <mxGeometry width="160" relative="1" as="geometry">
                        <mxPoint x="431.25" y="731.9200000000001" as="sourcePoint"/>
                        <mxPoint x="870.7500000000002" y="731.9200000000001" as="targetPoint"/>
                    </mxGeometry>
                </mxCell>
                <mxCell id="62" value="Enregistre le demande d'information" style="text;strokeColor=none;align=center;fillColor=none;html=1;verticalAlign=middle;whiteSpace=wrap;rounded=0;fontSize=12;fontColor=#FFFFFF;" parent="1" vertex="1">
                    <mxGeometry x="464.68" y="712" width="260" height="12" as="geometry"/>
                </mxCell>
                <mxCell id="64" value="" style="endArrow=open;endFill=1;endSize=12;html=1;strokeWidth=6;fontSize=12;fontColor=#FFFFFF;exitX=0.158;exitY=0.752;exitDx=0;exitDy=0;exitPerimeter=0;dashed=1;strokeColor=#FFFFFF;" parent="1" edge="1">
                    <mxGeometry width="160" relative="1" as="geometry">
                        <mxPoint x="863.5800000000002" y="770.8800000000001" as="sourcePoint"/>
                        <mxPoint x="432" y="770.8800000000001" as="targetPoint"/>
                    </mxGeometry>
                </mxCell>
                <mxCell id="65" value="Confirme l'enregistrement de la demande || envoye un message d'erreur" style="text;strokeColor=none;align=center;fillColor=none;html=1;verticalAlign=middle;whiteSpace=wrap;rounded=0;fontSize=12;fontColor=#FFFFFF;" parent="1" vertex="1">
                    <mxGeometry x="459" y="752" width="390" height="10" as="geometry"/>
                </mxCell>
                <mxCell id="66" value="" style="endArrow=open;endFill=1;endSize=12;html=1;strokeWidth=6;fontSize=12;fontColor=#FFFFFF;exitX=0.158;exitY=0.752;exitDx=0;exitDy=0;exitPerimeter=0;dashed=1;strokeColor=#FFFFFF;" parent="1" edge="1">
                    <mxGeometry width="160" relative="1" as="geometry">
                        <mxPoint x="431.5800000000004" y="802.8800000000001" as="sourcePoint"/>
                        <mxPoint x="94" y="803" as="targetPoint"/>
                    </mxGeometry>
                </mxCell>
                <mxCell id="67" value="Affiche un message de confirmation || message d'erreur" style="text;strokeColor=none;align=center;fillColor=none;html=1;verticalAlign=middle;whiteSpace=wrap;rounded=0;fontSize=12;fontColor=#FFFFFF;" parent="1" vertex="1">
                    <mxGeometry x="120" y="784" width="303" height="10" as="geometry"/>
                </mxCell>
                <mxCell id="68" value="" style="endArrow=open;endFill=1;endSize=12;html=1;strokeWidth=6;fontSize=12;fontColor=#FFFFFF;entryX=1.357;entryY=0.366;entryDx=0;entryDy=0;entryPerimeter=0;dashed=1;strokeColor=#FFFFFF;" parent="1" edge="1">
                    <mxGeometry width="160" relative="1" as="geometry">
                        <mxPoint x="428.79" y="455.44" as="sourcePoint"/>
                        <mxPoint x="100.07500000000007" y="455.38000000000005" as="targetPoint"/>
                    </mxGeometry>
                </mxCell>
                <mxCell id="69" value="Affiche la liste des véhicules filtrée disponibles" style="text;strokeColor=none;align=center;fillColor=none;html=1;verticalAlign=middle;whiteSpace=wrap;rounded=0;fontSize=12;fontColor=#FFFFFF;" parent="1" vertex="1">
                    <mxGeometry x="126.78999999999999" y="438.44" width="297" height="10" as="geometry"/>
                </mxCell>
            </root>
        </mxGraphModel>
    </diagram>
</mxfile>